PathFileType	4	(X/Y/Z)	/tmp/tmpfbxcaoho/Subject7/MarkerData/Take_2_10hz_segment_1.trc
DataRate	CameraRate	NumFrames	NumMarkers	Units	OrigDataRate	OrigDataStartFrame	OrigNumFrames
50.0148	50.0148	11	39	m	50.0148	0	1375
Frame#	Time	C7			CLAV			LANK			LASI			LBHD			LELB			LFHD			LFIN			LFRM			LHEE			LKNE			LPSI			LSHO			LTHI			LTIB			LTOE			LUPA			LWRA			LWRB			RANK			RASI			RBAK			RBHD			RELB			RFHD			RFIN			RFRM			RHEE			RKNE			RPSI			RSHO			RTHI			RTIB			RTOE			RUPA			RWRA			RWRB			STRN			T10		
		X1	Y1	Z1	X2	Y2	Z2	X3	Y3	Z3	X4	Y4	Z4	X5	Y5	Z5	X6	Y6	Z6	X7	Y7	Z7	X8	Y8	Z8	X9	Y9	Z9	X10	Y10	Z10	X11	Y11	Z11	X12	Y12	Z12	X13	Y13	Z13	X14	Y14	Z14	X15	Y15	Z15	X16	Y16	Z16	X17	Y17	Z17	X18	Y18	Z18	X19	Y19	Z19	X20	Y20	Z20	X21	Y21	Z21	X22	Y22	Z22	X23	Y23	Z23	X24	Y24	Z24	X25	Y25	Z25	X26	Y26	Z26	X27	Y27	Z27	X28	Y28	Z28	X29	Y29	Z29	X30	Y30	Z30	X31	Y31	Z31	X32	Y32	Z32	X33	Y33	Z33	X34	Y34	Z34	X35	Y35	Z35	X36	Y36	Z36	X37	Y37	Z37	X38	Y38	Z38	X39	Y39	Z39

1	40.02	-0.336738	1.25564	0.963468	-0.451667	1.1613	0.968663	-0.450377	0.0974184	1.20347	-0.364409	0.7198	1.06865	-0.319273	1.39785	0.969647	-0.525384	1.06805	1.3449	-0.463674	1.4296	1.08436	-0.784936	1.28189	1.3583	-0.642591	1.15227	1.38653	-0.4075	0.0429438	1.10373	-0.48122	0.479371	1.28005	-0.224595	0.778723	1.08575	-0.388157	1.21199	1.13929	-0.396331	0.618941	1.21153	-0.454754	0.28307	1.26052	-0.625325	0.0435895	1.26263	-0.444118	1.1213	1.25819	-0.770753	1.20589	1.32386	-0.750025	1.23322	1.40754	0.0645098	0.0979072	0.563673	-0.363864	0.764539	0.802008	-0.238424	1.13922	0.908098	-0.391279	1.39288	0.895006	-0.312718	1.27863	0.591332	-0.522331	1.42599	0.999212	-0.396172	1.3483	0.241136	-0.317279	1.32235	0.443986	0.115875	0.0382775	0.628266	-0.209448	0.415001	0.584838	-0.197239	0.815198	0.831638	-0.364593	1.25554	0.864822	-0.294141	0.607507	0.676667	-0.0523484	0.257727	0.557765	-0.115335	0.0382765	0.494155	-0.337839	1.26781	0.689501	-0.434449	1.34845	0.330915	-0.349669	1.36747	0.306666	-0.481	0.999219	0.951521	-0.217486	0.928208	0.976698
2	40.04	-0.343954	1.25766	0.972962	-0.458841	1.16334	0.977663	-0.451184	0.0969819	1.20397	-0.372585	0.721389	1.08002	-0.327019	1.40025	0.978683	-0.536003	1.06946	1.35338	-0.471297	1.43142	1.09364	-0.799847	1.27508	1.37616	-0.655139	1.14943	1.39912	-0.407693	0.0430989	1.1036	-0.489636	0.476437	1.28782	-0.23307	0.780942	1.0983	-0.397569	1.21356	1.14918	-0.405479	0.617612	1.22184	-0.459584	0.28125	1.26466	-0.625365	0.0434884	1.26272	-0.454479	1.12262	1.26754	-0.786771	1.19989	1.34037	-0.764597	1.22654	1.42406	0.0668606	0.0980499	0.560978	-0.369626	0.765896	0.813008	-0.245384	1.1409	0.918735	-0.399125	1.39511	0.90409	-0.318787	1.28065	0.600939	-0.530129	1.4277	1.00861	-0.40159	1.35067	0.250701	-0.323093	1.32461	0.45362	0.119293	0.0380365	0.624394	-0.202426	0.419894	0.59794	-0.203558	0.818039	0.844355	-0.371152	1.25727	0.874243	-0.294404	0.610033	0.689282	-0.046866	0.260763	0.563153	-0.114732	0.0383599	0.494341	-0.34398	1.26964	0.699012	-0.440057	1.35089	0.340427	-0.355211	1.36993	0.316291	-0.488201	1.00102	0.960656	-0.225351	0.930109	0.988303
3	40.06	-0.349182	1.25981	0.981722	-0.463968	1.16541	0.985932	-0.451559	0.0964575	1.20424	-0.378926	0.72311	1.08977	-0.333341	1.40318	0.987098	-0.544509	1.07252	1.36083	-0.478047	1.43314	1.10191	-0.812365	1.26951	1.39206	-0.665652	1.14807	1.41031	-0.407755	0.0430959	1.10354	-0.496072	0.473802	1.29405	-0.239575	0.782846	1.1088	-0.404224	1.21542	1.15781	-0.412598	0.616344	1.23033	-0.462914	0.279641	1.26808	-0.625337	0.0434841	1.26272	-0.462411	1.12498	1.27595	-0.800676	1.19511	1.35515	-0.77698	1.22112	1.43883	0.0694648	0.0979555	0.558051	-0.374305	0.767662	0.822335	-0.250346	1.14274	0.928302	-0.405343	1.39738	0.912439	-0.322497	1.28289	0.609729	-0.536744	1.42893	1.01679	-0.404097	1.35291	0.259211	-0.326364	1.32691	0.462395	0.121808	0.0370412	0.61949	-0.194019	0.424465	0.610638	-0.20867	0.820689	0.855064	-0.375639	1.25934	0.882887	-0.293636	0.612447	0.70038	-0.0405769	0.263615	0.56838	-0.114299	0.0385569	0.494695	-0.347965	1.27169	0.707702	-0.442895	1.35327	0.348742	-0.357982	1.37224	0.324944	-0.49341	1.00309	0.968889	-0.231215	0.931988	0.998335
4	40.08	-0.352963	1.26209	0.989693	-0.467712	1.16769	0.993481	-0.451683	0.0961128	1.20452	-0.384022	0.725077	1.09806	-0.33805	1.40634	0.994826	-0.551443	1.07702	1.36724	-0.483468	1.43508	1.1093	-0.823272	1.26525	1.40606	-0.674686	1.14815	1.42006	-0.407764	0.0430537	1.10352	-0.501183	0.471516	1.29889	-0.244757	0.784473	1.11726	-0.408808	1.21752	1.16529	-0.418339	0.615199	1.23719	-0.465362	0.278317	1.27079	-0.625294	0.0435264	1.26266	-0.468589	1.1282	1.28338	-0.81296	1.19168	1.3681	-0.787725	1.21705	1.45178	0.072103	0.0978407	0.555167	-0.378726	0.769815	0.830151	-0.254025	1.14471	0.936714	-0.409969	1.39976	0.920048	-0.324588	1.28536	0.617743	-0.541899	1.43032	1.02402	-0.404365	1.35545	0.266803	-0.327753	1.32942	0.470385	0.124274	0.0361947	0.614645	-0.184855	0.428609	0.623365	-0.213382	0.823131	0.863814	-0.378649	1.2618	0.890669	-0.29264	0.614547	0.710181	-0.0338913	0.266255	0.57373	-0.113713	0.0389945	0.495021	-0.350505	1.27399	0.71559	-0.443545	1.35597	0.355889	-0.358616	1.37477	0.332762	-0.497414	1.00553	0.976337	-0.235861	0.933866	1.00684
5	40.1	-0.356438	1.26409	0.996723	-0.471208	1.16978	1.00021	-0.45187	0.0959623	1.20477	-0.388566	0.726847	1.10482	-0.341858	1.40882	1.00169	-0.558104	1.08223	1.37253	-0.487702	1.437	1.11597	-0.833122	1.26232	1.41801	-0.683289	1.14925	1.42831	-0.407798	0.0430771	1.1035	-0.505576	0.469608	1.30264	-0.249237	0.785923	1.12393	-0.412771	1.21939	1.17173	-0.423301	0.61422	1.24268	-0.467609	0.277281	1.27288	-0.625285	0.0435484	1.2626	-0.474479	1.13172	1.28979	-0.824492	1.18954	1.37917	-0.79773	1.21425	1.46285	0.0745135	0.0980342	0.552419	-0.383348	0.771925	0.836553	-0.257561	1.14652	0.943936	-0.413798	1.40182	0.92685	-0.326353	1.28761	0.624877	-0.545984	1.43198	1.03061	-0.403723	1.35791	0.273371	-0.32853	1.33173	0.477468	0.126557	0.0356288	0.610439	-0.175427	0.432359	0.6361	-0.218173	0.825322	0.870715	-0.381494	1.26396	0.897373	-0.291877	0.616164	0.718777	-0.0271843	0.268711	0.579324	-0.112723	0.0396664	0.49523	-0.352858	1.27614	0.722554	-0.443327	1.35863	0.361908	-0.35834	1.37707	0.33963	-0.501233	1.0078	0.982967	-0.240142	0.935576	1.01394
6	40.12	-0.360189	1.26526	1.00258	-0.474931	1.17099	1.00594	-0.452267	0.0959346	1.20492	-0.392851	0.727784	1.10998	-0.345673	1.41013	1.0074	-0.565052	1.08722	1.37648	-0.491526	1.43816	1.1218	-0.842358	1.25969	1.42802	-0.691977	1.15038	1.43511	-0.407885	0.0431988	1.10345	-0.509697	0.467998	1.30553	-0.25329	0.787011	1.12906	-0.416855	1.22041	1.17711	-0.427837	0.613299	1.24691	-0.470049	0.27648	1.27432	-0.625317	0.0435199	1.2626	-0.480755	1.13471	1.29495	-0.835851	1.18767	1.3887	-0.807576	1.21176	1.47237	0.0767957	0.0987772	0.549095	-0.387946	0.773286	0.841495	-0.261387	1.14765	0.94997	-0.417731	1.403	0.932649	-0.328846	1.28883	0.630746	-0.549865	1.43309	1.03649	-0.403975	1.35885	0.278605	-0.330079	1.33279	0.483231	0.128997	0.0353581	0.6066	-0.165599	0.435852	0.648064	-0.222906	0.826986	0.875939	-0.385306	1.26468	0.902921	-0.291133	0.617049	0.726019	-0.0203582	0.271041	0.584492	-0.111698	0.0402201	0.495568	-0.355863	1.27734	0.728295	-0.444035	1.35986	0.366795	-0.358826	1.37792	0.345127	-0.505203	1.00912	0.98855	-0.244269	0.936656	1.01973
7	40.14	-0.363969	1.26551	1.00725	-0.478599	1.17116	1.01071	-0.452829	0.0959979	1.20495	-0.396653	0.72777	1.11369	-0.349626	1.41042	1.01193	-0.571633	1.09168	1.37921	-0.495259	1.43838	1.12666	-0.850979	1.25608	1.4364	-0.700368	1.15079	1.44069	-0.408024	0.0433618	1.10333	-0.513663	0.466636	1.30747	-0.256792	0.787588	1.13278	-0.420664	1.22036	1.18127	-0.431922	0.612353	1.24989	-0.472746	0.275852	1.27514	-0.625373	0.043469	1.26265	-0.486717	1.13703	1.29896	-0.846927	1.18473	1.39701	-0.81709	1.20836	1.48063	0.0787795	0.0996691	0.546006	-0.392105	0.773555	0.845139	-0.265203	1.14801	0.954755	-0.421816	1.40319	0.937345	-0.332428	1.28852	0.635108	-0.553774	1.4332	1.04146	-0.406252	1.35728	0.282362	-0.333124	1.33198	0.487406	0.13132	0.0354922	0.603303	-0.155825	0.43918	0.658437	-0.227255	0.827807	0.879615	-0.389493	1.26454	0.907288	-0.290259	0.617183	0.731765	-0.0137783	0.273304	0.588807	-0.111	0.0404322	0.495946	-0.359628	1.27726	0.732664	-0.446626	1.35871	0.370404	-0.361213	1.37653	0.348985	-0.508936	1.00928	0.993128	-0.247888	0.937003	1.02421
8	40.16	-0.367425	1.26535	1.01096	-0.481828	1.17083	1.01479	-0.453329	0.0960471	1.2049	-0.399536	0.727363	1.11664	-0.353363	1.41039	1.01555	-0.577107	1.09573	1.38129	-0.498802	1.43811	1.1307	-0.858111	1.25151	1.44439	-0.707641	1.15041	1.44566	-0.408148	0.0434854	1.10321	-0.516952	0.465586	1.30872	-0.259905	0.787412	1.13513	-0.4236	1.21979	1.1845	-0.435152	0.611548	1.2521	-0.475071	0.275344	1.27565	-0.625422	0.0434175	1.26271	-0.491434	1.13905	1.30231	-0.856929	1.18057	1.4047	-0.825385	1.20387	1.48834	0.0801613	0.100473	0.544279	-0.395596	0.77311	0.848065	-0.268681	1.14808	0.958447	-0.425795	1.40291	0.941175	-0.33677	1.28723	0.638197	-0.557524	1.4327	1.04567	-0.410383	1.35373	0.284916	-0.337459	1.32981	0.490221	0.132931	0.0359405	0.601549	-0.146627	0.442466	0.667355	-0.230957	0.828043	0.882212	-0.393479	1.26418	0.910663	-0.289119	0.61694	0.736394	-0.00763712	0.275482	0.592944	-0.110634	0.0404475	0.496113	-0.363865	1.27637	0.735865	-0.450851	1.35574	0.372929	-0.365358	1.37342	0.351448	-0.511988	1.00881	0.997086	-0.250599	0.937159	1.02772
9	40.18	-0.37039	1.26503	1.01434	-0.4845	1.17024	1.01872	-0.453573	0.0960253	1.20491	-0.401188	0.727061	1.11943	-0.356896	1.41044	1.0189	-0.581369	1.09978	1.38345	-0.502205	1.43741	1.13457	-0.862919	1.24759	1.45206	-0.71339	1.15017	1.4504	-0.408213	0.0435531	1.10318	-0.518877	0.464813	1.30999	-0.263267	0.7857	1.13588	-0.425509	1.21915	1.1873	-0.437045	0.610988	1.25415	-0.476353	0.274865	1.27627	-0.62544	0.0433873	1.26273	-0.494778	1.14107	1.30553	-0.864965	1.17759	1.41156	-0.83173	1.19984	1.49567	0.0811127	0.101199	0.543768	-0.398417	0.772309	0.850704	-0.271721	1.14809	0.961556	-0.429592	1.40252	0.944839	-0.341432	1.28589	0.640815	-0.561138	1.43171	1.04972	-0.415483	1.34988	0.287102	-0.342428	1.32757	0.492565	0.13357	0.0362601	0.601261	-0.138036	0.445651	0.675106	-0.234023	0.82796	0.884189	-0.397202	1.26376	0.913701	-0.287604	0.616726	0.740173	-0.00169	0.277445	0.597373	-0.110471	0.0404725	0.496117	-0.368246	1.27535	0.738647	-0.455892	1.35253	0.375139	-0.370541	1.37015	0.353454	-0.514348	1.00805	1.00083	-0.252398	0.937358	1.03064
10	40.1999	-0.372948	1.26421	1.01819	-0.486753	1.16906	1.02305	-0.453643	0.0959735	1.20501	-0.402007	0.726527	1.12194	-0.36051	1.41037	1.02326	-0.584754	1.10381	1.38624	-0.505774	1.43546	1.13953	-0.866203	1.24507	1.45903	-0.717827	1.15058	1.45506	-0.408195	0.043535	1.10317	-0.520075	0.46411	1.31129	-0.265663	0.784076	1.13652	-0.426668	1.21798	1.19025	-0.438139	0.610434	1.25607	-0.477042	0.274397	1.27698	-0.625429	0.043394	1.26271	-0.497357	1.14249	1.30871	-0.870724	1.17688	1.41724	-0.836498	1.1973	1.50248	0.0820659	0.101226	0.544127	-0.400546	0.770944	0.853114	-0.274401	1.14771	0.964783	-0.433345	1.40211	0.949442	-0.346326	1.28495	0.643906	-0.564848	1.42961	1.05478	-0.421423	1.34744	0.290094	-0.347875	1.32616	0.495514	0.133695	0.0362047	0.601327	-0.13141	0.447806	0.680883	-0.236362	0.827162	0.885874	-0.40079	1.26308	0.917223	-0.286607	0.616186	0.742974	0.00317483	0.278741	0.601055	-0.110314	0.0405249	0.496103	-0.372662	1.27448	0.741918	-0.461628	1.35032	0.378211	-0.376509	1.36818	0.356282	-0.516284	1.00674	1.00454	-0.253513	0.937206	1.0334
11	40.2199	-0.375481	1.26275	1.02354	-0.488982	1.16717	1.02872	-0.453668	0.0958191	1.20499	-0.402684	0.725522	1.12436	-0.364808	1.41047	1.02996	-0.588121	1.10732	1.39008	-0.510405	1.43176	1.14662	-0.869524	1.24304	1.46576	-0.72165	1.15096	1.46015	-0.408101	0.0432201	1.10311	-0.52186	0.46312	1.3121	-0.265002	0.785427	1.13936	-0.427589	1.216	1.19429	-0.439616	0.609497	1.25771	-0.477862	0.273765	1.27761	-0.625376	0.0434728	1.26261	-0.499734	1.14317	1.31282	-0.874518	1.17669	1.42266	-0.840982	1.19536	1.50914	0.0824446	0.100816	0.544646	-0.402571	0.769013	0.855703	-0.277119	1.14678	0.969126	-0.437544	1.40178	0.956124	-0.351788	1.2844	0.648528	-0.569396	1.42585	1.06183	-0.428546	1.34668	0.295022	-0.354127	1.32571	0.500137	0.133633	0.0357231	0.601408	-0.129719	0.447642	0.683851	-0.238446	0.825259	0.887493	-0.404507	1.26206	0.922312	-0.287604	0.614106	0.74542	0.00457178	0.278772	0.602926	-0.110179	0.0405284	0.496125	-0.377453	1.27373	0.746754	-0.468472	1.34932	0.383294	-0.383563	1.36763	0.361082	-0.518356	1.00481	1.00899	-0.254274	0.936461	1.03668
